<svg xmlns="http://www.w3.org/2000/svg" viewBox="0 0 512 512" style="height: 512px; width: 512px;"><circle cx="256" cy="256" r="256" fill="#4264d7" fill-opacity="1"></circle><g class="" transform="translate(0,0)" style="touch-action: none;"><path d="M155.084 125.945c-.46 0-.926.01-1.397.034-5.646.285-12.097 2.464-20.707 8.204-21.824 14.55-51.912 60.395-67.834 110.005-15.92 49.61-18.046 102.25 5.936 132.966 4.142 5.306 13.387 8.93 23.756 8.846 10.216-.084 20.682-3.838 26.482-9.44 1.022-1.47 9.296-13.336 21.39-27.404 12.863-14.96 28.716-31.686 45.835-38.777 41.863-17.34 93.024-17.34 134.887 0 17.118 7.092 32.97 23.818 45.834 38.778 12.095 14.068 20.37 25.933 21.39 27.404 5.8 5.602 16.267 9.356 26.483 9.44 10.368.085 19.612-3.54 23.755-8.846 23.973-30.704 21.885-83.575 5.978-133.287-15.907-49.713-46.054-95.526-67.783-109.624-11.498-7.46-19.198-8.73-26.285-7.64-7.088 1.093-14.347 5.197-22.866 11.07-17.038 11.746-38.898 30.02-73.952 30.02-35.212 0-57.115-18.514-74.13-30.356-8.505-5.92-15.73-10.025-22.743-11.078-1.315-.198-2.65-.312-4.03-.317zm212.904 48.75a16 16 0 0 1 16 16 16 16 0 0 1-16 16 16 16 0 0 1-16-16 16 16 0 0 1 16-16zM135 183h18v32h32v18h-32v32h-18v-32h-32v-18h32v-32zm200.988 23.695a16 16 0 0 1 16 16 16 16 0 0 1-16 16 16 16 0 0 1-16-16 16 16 0 0 1 16-16zm64 0a16 16 0 0 1 16 16 16 16 0 0 1-16 16 16 16 0 0 1-16-16 16 16 0 0 1 16-16zm-32 32a16 16 0 0 1 16 16 16 16 0 0 1-16 16 16 16 0 0 1-16-16 16 16 0 0 1 16-16zm-160 7h32v18h-32v-18zm64 0h27.897v18h-27.897v-18z" fill="#ffffff" fill-opacity="1"></path></g><g class="" transform="translate(303,320)" style="touch-action: none;"><g transform="translate(9.6, 9.6) scale(0.7, 0.7) rotate(0, 128, 128)"><circle cx="128" cy="128" r="128" fill="#3c3b3b" fill-opacity="1"></circle><circle stroke="#ffffff" stroke-opacity="1" fill="#3c3b3b" fill-opacity="1" stroke-width="18" cx="128" cy="128" r="101"></circle><path fill="#ffffff" fill-opacity="1" d="M150.094 59.7L139.07 78.695c-7.27-1.615-15.652-1.322-22.142.234l-10.791-19.054L80.33 74.858 91.5 94.554a48.133 48.133 0 0 0-9.938 18.63l-23.52.105-.197 29.834 25.035-.119a49.2 49.2 0 0 0 9.666 15.859L79.5 181.36l25.61 14.852 13.108-22.596a47.62 47.62 0 0 0 18.542.3l13.102 22.58 25.623-15.283c-4.08-7.22-8.161-14.44-12.244-21.66a48.554 48.554 0 0 0 10.252-16.378l24.464-.092.198-29.834-23.235-.156a48.717 48.717 0 0 0-10.387-19.304l11.172-19.24zm-19.705 44.292c12.71 1.043 22.352 12.16 21.787 25.043-.584 13.297-11.839 23.598-25.137 23.015-13.3-.582-23.855-11.836-23.018-25.121.905-14.35 13.161-24.021 26.368-22.937z"></path></g></g></svg>